<svg xmlns="http://www.w3.org/2000/svg" viewBox="0 0 64 64" width="64" height="64">
  <defs>
    <linearGradient id="bgGrad" x1="0%" y1="0%" x2="100%" y2="100%">
      <stop offset="0%" stop-color="#1b4332"/>
      <stop offset="100%" stop-color="#2d6a4f"/>
    </linearGradient>
    <filter id="glow" x="-20%" y="-20%" width="140%" height="140%">
      <feDropShadow dx="0" dy="2" stdDeviation="2" flood-color="#000000" flood-opacity="0.3"/>
    </filter>
  </defs>
  
  <!-- Rounded Base -->
  <rect width="64" height="64" rx="16" fill="url(#bgGrad)"/>
  
  <!-- Inner Border Accent -->
  <rect x="2" y="2" width="60" height="60" rx="14" fill="none" stroke="#52b788" stroke-width="1.5" stroke-opacity="0.4"/>
  
  <!-- BookOpenCheck Icon Graphic centered -->
  <g transform="translate(12, 12) scale(1.666)" stroke="#ffffff" stroke-width="2.2" stroke-linecap="round" stroke-linejoin="round" fill="none" filter="url(#glow)">
    <!-- Center Spine -->
    <path d="M12 21V7" stroke="#95d5b2"/>
    <!-- Checkmark -->
    <path d="m16 12 2 2 4-4" stroke="#52b788" stroke-width="2.5"/>
    <!-- Book Pages Outline -->
    <path d="M22 6V4a1 1 0 0 0-1-1h-5a4 4 0 0 0-4 4 4 4 0 0 0-4-4H3a1 1 0 0 0-1 1v13a1 1 0 0 0 1 1h6a3 3 0 0 1 3 3 3 3 0 0 1 3-3h3" />
  </g>
</svg>